<?xml version="1.0" standalone="no"?>
<!DOCTYPE svg PUBLIC "-//W3C//DTD SVG 20010904//EN"
 "http://www.w3.org/TR/2001/REC-SVG-20010904/DTD/svg10.dtd">
<svg version="1.0" xmlns="http://www.w3.org/2000/svg"
 width="1024.000000pt" height="1024.000000pt" viewBox="0 0 1024.000000 1024.000000"
 preserveAspectRatio="xMidYMid meet">

<g transform="translate(0.000000,1024.000000) scale(0.100000,-0.100000)"
fill="#000000" stroke="none">
<path d="M4957 8904 c-473 -43 -978 -200 -1321 -412 -234 -144 -441 -305 -601
-466 -168 -170 -278 -304 -410 -501 -232 -348 -400 -748 -475 -1128 -70 -361
-83 -547 -60 -843 35 -444 204 -963 440 -1354 169 -280 449 -611 682 -806 363
-303 850 -555 1268 -654 161 -39 153 -34 211 -111 100 -131 270 -363 402 -548
72 -101 141 -190 154 -198 28 -18 41 -10 75 46 24 40 226 349 295 451 24 36
87 123 141 195 94 125 99 130 147 143 353 91 652 210 920 367 310 181 613 448
846 745 156 200 342 520 444 765 115 276 166 458 212 760 24 158 27 210 28
425 0 184 -5 278 -18 375 -40 286 -127 603 -234 855 -58 136 -89 196 -183 360
-272 473 -599 825 -992 1068 -161 99 -243 142 -413 215 -201 86 -332 128 -565
181 -223 51 -300 62 -530 76 -203 12 -275 11 -463 -6z m663 -238 c489 -71 894
-220 1248 -458 348 -234 689 -629 916 -1061 177 -335 284 -683 331 -1073 21
-174 16 -512 -9 -674 -91 -574 -325 -1082 -721 -1565 -228 -278 -599 -550
-985 -721 -150 -66 -418 -153 -539 -175 -57 -10 -110 -24 -118 -31 -32 -26
-272 -352 -368 -498 -56 -85 -109 -161 -117 -168 -14 -11 -20 -5 -48 40 -40
65 -108 157 -265 358 -67 85 -136 178 -154 207 l-32 52 -157 37 c-356 84 -654
213 -967 419 -242 159 -399 300 -640 574 -323 368 -556 864 -639 1361 -63 382
-54 717 30 1129 76 367 276 793 538 1141 251 335 631 666 942 823 287 145 738
270 1084 301 103 9 569 -3 670 -18z"/>
<path d="M5070 8360 c-888 -6 -896 -6 -975 -28 -193 -54 -342 -156 -456 -313
-78 -106 -119 -182 -151 -279 -30 -94 -31 -98 -36 -351 l-4 -256 -91 -11
c-172 -21 -302 -109 -379 -257 -58 -112 -73 -253 -44 -408 22 -115 58 -181
146 -268 99 -99 160 -128 280 -136 l89 -6 3 -936 c3 -936 3 -936 26 -1016 85
-302 283 -491 577 -550 71 -14 208 -15 1245 -13 l1165 3 96 32 c65 22 124 52
187 94 142 95 224 197 280 351 l27 73 3 983 2 982 83 0 c97 0 137 16 238 91
133 98 199 244 199 438 0 185 -31 282 -121 385 -84 95 -185 142 -341 161 l-58
7 0 155 c0 112 -4 161 -14 181 -28 54 -358 367 -516 490 -47 36 -108 86 -136
109 -29 24 -79 65 -112 91 -33 26 -106 84 -161 130 -78 64 -106 82 -128 80
-15 -1 -431 -5 -923 -8z m777 -407 c-9 -229 0 -322 43 -410 39 -79 123 -158
177 -166 21 -3 203 -4 406 -1 l367 4 -2 -1632 -3 -1633 -42 -85 c-71 -146
-191 -246 -324 -270 -70 -13 -2298 -20 -2384 -8 -188 27 -346 178 -389 370
-23 103 -25 264 -28 1938 l-3 1605 26 55 c15 30 35 73 45 95 21 46 150 185
209 225 58 39 187 80 280 89 44 5 429 9 855 10 l775 1 -8 -187z m483 -100 c63
-56 151 -128 195 -161 134 -98 143 -92 -126 -92 -166 0 -241 4 -258 13 -56 28
-69 106 -63 366 l2 104 68 -64 c37 -35 119 -110 182 -166z m859 -962 c112 -53
158 -149 148 -306 -9 -145 -48 -224 -130 -264 -27 -13 -63 -21 -95 -21 l-52 0
0 248 c0 136 3 277 6 314 l7 67 31 -6 c17 -3 55 -17 85 -32z m-3739 -69 c0
-55 -3 -194 -7 -310 l-6 -212 -41 0 c-97 0 -183 56 -227 147 -33 69 -39 238
-10 314 24 64 34 74 115 123 50 30 69 36 118 36 l58 0 0 -98z"/>
<path d="M4487 7140 c-74 -12 -127 -36 -203 -92 -155 -116 -225 -280 -190
-449 70 -335 394 -494 688 -337 79 42 131 103 189 221 55 113 68 179 50 274
-25 139 -97 244 -213 316 -104 64 -202 85 -321 67z m168 -219 c91 -41 151
-137 149 -241 -2 -125 -63 -214 -166 -245 -65 -19 -91 -19 -156 0 -166 50
-227 257 -121 412 31 44 71 77 104 86 49 12 151 6 190 -12z"/>
<path d="M5845 7136 c-158 -50 -283 -174 -336 -333 -18 -55 -21 -81 -17 -162
14 -266 188 -443 438 -445 105 -1 220 35 295 92 48 36 116 127 151 202 64 133
56 304 -19 433 -33 55 -117 133 -183 169 -100 54 -239 73 -329 44z m196 -211
c78 -28 133 -97 157 -196 28 -113 -45 -249 -158 -297 -45 -19 -141 -11 -201
15 -89 40 -132 108 -132 208 0 90 26 168 73 215 64 64 172 86 261 55z"/>
<path d="M5184 6424 c-51 -12 -52 -14 -46 -371 4 -299 6 -335 23 -362 22 -37
52 -45 123 -37 81 11 80 3 80 395 1 284 -1 338 -14 353 -15 18 -121 32 -166
22z"/>
<path d="M4128 5361 c-27 -8 -68 -56 -74 -87 -7 -38 16 -88 48 -105 17 -9 307
-13 1157 -15 l1135 -2 32 32 c40 40 50 76 34 117 -28 66 55 62 -1190 63 -622
0 -1136 -1 -1142 -3z"/>
<path d="M5221 4843 l-1094 -3 -33 -25 c-41 -32 -53 -79 -30 -124 34 -65 -50
-60 1200 -62 l1139 -2 34 36 c46 51 46 100 -1 146 -27 26 -44 34 -78 35 -23 1
-535 1 -1137 -1z"/>
<path d="M4109 4295 c-15 -8 -34 -31 -44 -51 -30 -64 -2 -127 68 -153 19 -8
376 -11 1139 -11 1108 0 1110 0 1139 21 67 47 78 122 25 175 l-34 34 -1133 0
c-961 -1 -1138 -3 -1160 -15z"/>
</g>
</svg>
